<?xml version="1.0" encoding="utf-8"?>
<!-- Generator: Adobe Illustrator 23.1.0, SVG Export Plug-In . SVG Version: 6.00 Build 0)  -->
<svg version="1.1" id="Layer_1" xmlns="http://www.w3.org/2000/svg" xmlns:xlink="http://www.w3.org/1999/xlink" x="0px" y="0px"
	 viewBox="0 0 512 554" style="enable-background:new 0 0 512 554;" xml:space="preserve">
<style type="text/css">
	.st0{fill:#CCFF00;}
	.st1{fill:#ACC642;}
	.st2{fill:#636363;}
	.st3{fill:#649937;}
	.st4{fill:#494948;}
</style>
<title>android-svgrepo-com_1</title>
<circle class="st0" cx="256" cy="298" r="256"/>
<ellipse class="st1" cx="250.5" cy="459.5" rx="156.9" ry="15.4"/>
<path class="st2" d="M123.1,337.7c0,19.9,17.1,36.1,38,36.1h12.7v60.2c0,16.6,14.2,30.1,31.6,30.1s31.6-13.5,31.6-30.1v-60.2h38
	v60.2c0,16.6,14.2,30.1,31.6,30.1s31.6-13.5,31.6-30.1v-60.2H351c20.9,0,38-16.3,38-36.1V157H123.1V337.7z"/>
<path class="st3" d="M433.2,151c-17.5,0-31.6,13.5-31.6,30.1v120.5c0,16.6,14.2,30.1,31.6,30.1s31.6-13.5,31.6-30.1V181.1
	C464.9,164.5,450.7,151,433.2,151z"/>
<path class="st2" d="M78.8,151c-17.5,0-31.7,13.5-31.7,30.1v120.5c0,16.6,14.2,30.1,31.7,30.1s31.7-13.5,31.7-30.1V181.1
	C110.4,164.5,96.2,151,78.8,151z"/>
<path class="st2" d="M328,38.7l17-29.8c1.6-2.8,0.6-6.4-2.2-8c-0.1-0.1-0.2-0.1-0.3-0.2c-3-1.6-6.8-0.5-8.6,2.4L317,32.6
	c-38.5-18.9-83.5-18.9-122,0L178.1,3.1c-1.8-2.9-5.5-4-8.6-2.4c-2.9,1.4-4.1,5-2.6,7.9c0,0.1,0.1,0.2,0.2,0.3l17.1,29.8
	c-36.7,22.5-61,61.7-61,106.3h265.9C388.9,100.3,364.6,61.2,328,38.7z M199,102.8c-7,0-12.7-5.4-12.7-12s5.7-12,12.7-12
	s12.7,5.4,12.7,12S206,102.8,199,102.8z M312.9,102.8c-7,0-12.7-5.4-12.7-12s5.7-12,12.7-12s12.7,5.4,12.7,12S320,102.8,312.9,102.8
	L312.9,102.8z"/>
<path class="st4" d="M256,373.9h19v60.2c0,16.6,14.2,30.1,31.6,30.1s31.6-13.5,31.6-30.1v-60.2H351c20.9,0,38-16.3,38-36.1V157H256
	V373.9z"/>
<path class="st4" d="M328,38.7l17-29.8c1.6-2.8,0.6-6.4-2.2-8c-0.1-0.1-0.2-0.1-0.3-0.2c-3-1.6-6.8-0.5-8.6,2.4L317,32.6
	c-19-9.4-39.8-14.2-61-14.2V145h132.9C388.9,100.3,364.6,61.2,328,38.7z M313,102.8c-7,0-12.7-5.4-12.7-12s5.7-12,12.7-12
	s12.7,5.4,12.7,12S320,102.8,313,102.8z"/>
<path class="st2" d="M433.2,151c-17.5,0-31.6,13.5-31.6,30.1v120.5c0,16.6,14.2,30.1,31.6,30.1s31.6-13.5,31.6-30.1V181.1
	C464.9,164.5,450.7,151,433.2,151z"/>
</svg>
