<?xml version="1.0" encoding="utf-8"?>
<!-- Generator: Adobe Illustrator 23.1.0, SVG Export Plug-In . SVG Version: 6.00 Build 0)  -->
<svg version="1.1" id="Layer_1" xmlns="http://www.w3.org/2000/svg" xmlns:xlink="http://www.w3.org/1999/xlink" x="0px" y="0px"
	 viewBox="0 0 560 560" style="enable-background:new 0 0 560 560;" xml:space="preserve">
<style type="text/css">
	.st0{fill:#CCFF00;}
	.st1{fill:#ACC642;}
	.st2{fill:#070707;}
</style>
<circle class="st0" cx="280.5" cy="280.5" r="256"/>
<ellipse class="st1" cx="290" cy="468.5" rx="151" ry="21.2"/>
<path class="st2" d="M420.1,253.8c0.7,69.3,68.2,92.4,68.9,92.7c-0.6,1.6-10.8,32.9-35.5,65.1c-21.4,27.9-43.6,55.7-78.6,56.3
	c-34.4,0.6-45.4-18.2-84.7-18.2c-39.3,0-51.6,17.6-84.1,18.8c-33.8,1.1-59.5-30.2-81.1-58c-44.1-56.9-77.8-160.7-32.5-230.8
	c22.5-34.8,62.6-56.8,106.2-57.4c33.2-0.6,64.5,19.9,84.7,19.9c20.3,0,58.3-24.6,98.3-21c16.7,0.6,63.7,6,93.9,45.4
	C473.2,168,419.5,195.9,420.1,253.8 M349.5,93.3c17.9-19.4,30-46.3,26.7-73.1c-25.8,0.9-57.1,15.4-75.6,34.7
	C284,72,269.4,99.4,273.4,125.7C302.2,127.7,331.6,112.6,349.5,93.3"/>
</svg>
