<?xml version="1.0" encoding="utf-8"?>
<!-- Generator: Adobe Illustrator 23.1.0, SVG Export Plug-In . SVG Version: 6.00 Build 0)  -->
<svg version="1.1" id="Layer_1" xmlns="http://www.w3.org/2000/svg" xmlns:xlink="http://www.w3.org/1999/xlink" x="0px" y="0px"
	 viewBox="0 0 512 512" style="enable-background:new 0 0 512 512;" xml:space="preserve">
<style type="text/css">
	.st0{fill:#CCFF00;}
	.st1{fill:#ACC642;}
	.st2{fill:#D0D1D3;}
	.st3{fill:#A6A8AA;}
	.st4{fill:#C92F00;}
	.st5{fill:#EAA22F;}
	.st6{fill:#386895;}
	.st7{fill:#FFFFFF;}
	.st8{fill:#6CAF5F;}
	.st9{fill:#FFC61B;}
	.st10{fill:#FF314F;}
	.st11{fill:#59595B;}
</style>
<circle class="st0" cx="256" cy="256" r="256"/>
<ellipse class="st1" cx="258.6" cy="389.9" rx="192" ry="19.7"/>
<path class="st2" d="M465.4,380.2H53.5c-9.6,0-17.3-7.8-17.3-17.3V72.8c0-9.6,7.8-17.3,17.3-17.3h411.9c9.6,0,17.3,7.8,17.3,17.3
	v290.1C482.7,372.5,475,380.2,465.4,380.2z"/>
<path class="st3" d="M465.4,55.5H258.6v324.8h206.8c9.6,0,17.3-7.8,17.3-17.3V72.8C482.7,63.2,475,55.5,465.4,55.5z"/>
<circle class="st4" cx="60.2" cy="75.8" r="9.8"/>
<circle class="st5" cx="94" cy="75.8" r="9.8"/>
<circle class="st6" cx="127.8" cy="75.8" r="9.8"/>
<path class="st7" d="M455.1,84.4H157.4c-4.8,0-8.6-3.9-8.6-8.6l0,0c0-4.8,3.9-8.6,8.6-8.6h297.7c4.8,0,8.6,3.9,8.6,8.6l0,0
	C463.7,80.5,459.8,84.4,455.1,84.4z"/>
<path class="st2" d="M393.1,150.4H255.4v12.1h137.6c3.3,0,6-2.7,6-6S396.4,150.4,393.1,150.4z"/>
<rect x="112.9" y="175.8" class="st7" width="286.2" height="181"/>
<rect x="258.6" y="103.4" class="st2" width="205" height="258.3"/>
<g>
	<rect x="267.3" y="130.5" class="st3" width="73.4" height="87.9"/>
	<rect x="365.2" y="130.5" class="st3" width="73.4" height="87.9"/>
	<rect x="267.3" y="246.2" class="st3" width="171.3" height="97.7"/>
</g>
<rect x="267.3" y="246.2" class="st8" width="13" height="97.7"/>
<rect x="267.3" y="130.5" class="st9" width="73.4" height="17.3"/>
<rect x="365.2" y="130.5" class="st10" width="73.4" height="17.3"/>
<rect x="55.2" y="103.4" class="st11" width="181.9" height="258.3"/>
<g>
	<path class="st3" d="M165.5,171.3v-15.2c0-1.6-1.3-2.9-2.9-2.9h-2.9c-1.2,0-2.4-0.8-2.7-2c-0.7-2.2-1.6-4.4-2.7-6.5
		c-0.6-1.1-0.3-2.5,0.5-3.3l2-2c1.1-1.1,1.1-3,0-4.1l-10.8-10.8c-1.1-1.1-3-1.1-4.1,0l-2,2c-0.9,0.9-2.2,1.1-3.3,0.5
		c-2.1-1.1-4.2-2-6.5-2.7c-1.2-0.4-2-1.5-2-2.7v-2.9c0-1.6-1.3-2.9-2.9-2.9h-15.2c-1.6,0-2.9,1.3-2.9,2.9v2.9c0,1.2-0.8,2.4-2,2.7
		c-2.2,0.7-4.4,1.6-6.5,2.7c-1.1,0.6-2.5,0.3-3.3-0.5l-2-2c-1.1-1.1-3-1.1-4.1,0l-10.8,10.8c-1.1,1.1-1.1,3,0,4.1l2,2
		c0.9,0.9,1.1,2.2,0.5,3.3c-1.1,2.1-2,4.2-2.7,6.5c-0.4,1.2-1.5,2-2.7,2h-2.9c-1.6,0-2.9,1.3-2.9,2.9v15.2c0,1.6,1.3,2.9,2.9,2.9
		h2.9c1.2,0,2.4,0.8,2.7,2c0.7,2.2,1.6,4.4,2.7,6.5c0.6,1.1,0.3,2.5-0.5,3.3l-2,2c-1.1,1.1-1.1,3,0,4.1l10.8,10.8
		c1.1,1.1,3,1.1,4.1,0l2-2c0.9-0.9,2.2-1.1,3.3-0.5c2.1,1.1,4.2,2,6.5,2.7c1.2,0.4,2,1.5,2,2.7v2.9c0,1.6,1.3,2.9,2.9,2.9h15.2
		c1.6,0,2.9-1.3,2.9-2.9v-2.9c0-1.2,0.8-2.4,2-2.7c2.2-0.7,4.4-1.6,6.5-2.7c1.1-0.6,2.5-0.3,3.3,0.5l2,2c1.1,1.1,3,1.1,4.1,0
		l10.8-10.8c1.1-1.1,1.1-3,0-4.1l-2-2c-0.9-0.9-1.1-2.2-0.5-3.3c1.1-2.1,2-4.2,2.7-6.5c0.4-1.2,1.5-2,2.7-2h2.9
		C164.2,174.1,165.5,172.9,165.5,171.3z M120.2,174c-7.8,1.7-14.5-5-12.8-12.8c0.9-3.9,4-7.1,7.9-7.9c7.8-1.7,14.5,5,12.8,12.8
		C127.2,170,124.1,173.1,120.2,174z"/>
	<path class="st3" d="M229.7,287.4v-21.1c0-2.2-1.8-4-4-4h-4c-1.7,0-3.3-1.1-3.8-2.7c-1-3.1-2.2-6.1-3.7-9c-0.8-1.5-0.5-3.4,0.7-4.6
		l2.8-2.8c1.6-1.6,1.6-4.1,0-5.7l-14.9-14.9c-1.6-1.6-4.1-1.6-5.7,0l-2.8,2.8c-1.2,1.2-3.1,1.5-4.6,0.7c-2.9-1.5-5.9-2.7-9-3.7
		c-1.6-0.5-2.7-2.1-2.7-3.8v-4c0-2.2-1.8-4-4-4H153c-2.2,0-4,1.8-4,4v4c0,1.7-1.1,3.3-2.7,3.8c-3.1,1-6.1,2.2-9,3.7
		c-1.5,0.8-3.4,0.5-4.6-0.7l-2.8-2.8c-1.6-1.6-4.1-1.6-5.7,0l-14.9,14.9c-1.6,1.6-1.6,4.1,0,5.7l2.8,2.8c1.2,1.2,1.5,3.1,0.7,4.6
		c-1.5,2.9-2.7,5.9-3.7,9c-0.5,1.6-2.1,2.7-3.8,2.7h-4c-2.2,0-4,1.8-4,4v21.1c0,2.2,1.8,4,4,4h4c1.7,0,3.3,1.1,3.8,2.7
		c1,3.1,2.2,6.1,3.7,9c0.8,1.5,0.5,3.4-0.7,4.6l-2.8,2.8c-1.6,1.6-1.6,4.1,0,5.7l14.9,14.9c1.6,1.6,4.1,1.6,5.7,0l2.8-2.8
		c1.2-1.2,3.1-1.5,4.6-0.7c2.9,1.5,5.9,2.7,9,3.7c1.6,0.5,2.7,2.1,2.7,3.8v4c0,2.2,1.8,4,4,4h21.1c2.2,0,4-1.8,4-4v-4
		c0-1.7,1.1-3.3,2.7-3.8c3.1-1,6.1-2.2,9-3.7c1.5-0.8,3.4-0.5,4.6,0.7l2.8,2.8c1.6,1.6,4.1,1.6,5.7,0l14.9-14.9
		c1.6-1.6,1.6-4.1,0-5.7l-2.8-2.8c-1.2-1.2-1.5-3.1-0.7-4.6c1.5-2.9,2.7-5.9,3.7-9c0.5-1.6,2.1-2.7,3.8-2.7h4
		C227.9,291.5,229.7,289.7,229.7,287.4z M169.7,303.1c-19.6,4.4-36.7-12.8-32.4-32.4c2.2-9.9,10.2-17.9,20.1-20.1
		c19.6-4.4,36.7,12.8,32.4,32.4C187.5,292.9,179.6,300.9,169.7,303.1z"/>
</g>
</svg>
