<?xml version="1.0" encoding="utf-8"?>
<!-- Generator: Adobe Illustrator 23.1.0, SVG Export Plug-In . SVG Version: 6.00 Build 0)  -->
<svg version="1.1" id="Layer_1" xmlns="http://www.w3.org/2000/svg" xmlns:xlink="http://www.w3.org/1999/xlink" x="0px" y="0px"
	 viewBox="0 0 33 33" style="enable-background:new 0 0 33 33;" xml:space="preserve">
<style type="text/css">
	.st0{fill:#FFFFFF;}
</style>
<path class="st0" d="M21.4,23.2c-2.6,0-4.7-2.2-4.7-4.9c0-2.7,2.1-4.9,4.7-4.9c2.6,0,4.7,2.2,4.7,4.9C26.2,21.1,24,23.2,21.4,23.2
	L21.4,23.2z M15.3,26.6L15.3,26.6c-0.5-0.6-2.5-0.7-3.3-0.4c-0.8,0.3-1.6-0.2-0.9-2.2c0.6-2,1.3-2.9,1.3-2.9s4.3,4.6,4.3,5.2
	C16.7,27,15.8,27.2,15.3,26.6L15.3,26.6z M29.4,18.3L29.4,18.3c-0.1-5.8-4.3-5.6-5.3-8.4c-1-2.8,5.7-9.9-6.7-9.9
	C6.9,0,5.9,10.5,5.4,11.3c-0.5,0.9-1.2,1.6-1.5,3.1c-0.3,1.3,0,2.8,0.9,2.8c1.3,0-0.3-2.6,1.3-2.6c2,0,4.4,3.3,5.1,5.2
	c-1.1,1.9-2.6,3.2-3.7,2.7c-1.1-0.5-2.2-1.3-2.2-3c0-1.2-1.1-1.2-1,0.4c0.1,2.1,1.2,3.3,2.6,4.4c1.4,1.1,3.3,3.2,4,5
	c0.5,1.2,1.2,1.8,3,1.8c1.8,0,0.4,1.6,1.7,1.6s0.5-1.7,1.2-1.7c0.7,0,0,1.6,1.4,1.6c2.1,0,1.2-2.6,1.8-3.1
	C20.5,29,29.6,24.2,29.4,18.3L29.4,18.3z"/>
</svg>
