<?xml version="1.0" encoding="utf-8"?>
<!-- Generator: Adobe Illustrator 23.1.0, SVG Export Plug-In . SVG Version: 6.00 Build 0)  -->
<svg version="1.1" id="Layer_1" xmlns="http://www.w3.org/2000/svg" xmlns:xlink="http://www.w3.org/1999/xlink" x="0px" y="0px"
	 viewBox="0 0 33 33" style="enable-background:new 0 0 33 33;" xml:space="preserve">
<path d="M20.8,23.1c-2.4,0-4.3-2-4.3-4.4c0-2.4,1.9-4.4,4.3-4.4c2.4,0,4.3,2,4.3,4.4C25.1,21.1,23.2,23.1,20.8,23.1L20.8,23.1z
	 M15.2,26.1L15.2,26.1c-0.5-0.5-2.3-0.6-3-0.3c-0.7,0.3-1.4-0.1-0.9-2c0.6-1.8,1.2-2.6,1.2-2.6s3.9,4.2,3.9,4.8
	C16.5,26.5,15.7,26.7,15.2,26.1L15.2,26.1z M28,18.6L28,18.6c-0.1-5.3-3.9-5.1-4.8-7.6c-0.9-2.5,5.2-9-6.1-9
	C7.6,2,6.7,11.5,6.3,12.2c-0.5,0.8-1.1,1.5-1.4,2.8c-0.3,1.2,0,2.6,0.8,2.6c1.2,0-0.3-2.4,1.2-2.4c1.8,0,4,3,4.6,4.7
	c-1,1.8-2.4,2.9-3.4,2.4c-1-0.5-2-1.2-2-2.7c0-1.1-1-1.1-0.9,0.3c0.1,1.9,1.1,3,2.4,4c1.3,1,3,2.9,3.6,4.5c0.4,1.1,1.1,1.6,2.7,1.6
	c1.6,0,0.4,1.4,1.5,1.4s0.5-1.6,1.1-1.6c0.7,0,0,1.5,1.3,1.5c1.9,0,1.1-2.4,1.6-2.8C20,28.3,28.2,24,28,18.6L28,18.6z"/>
</svg>
