<?xml version="1.0" encoding="utf-8"?>
<!-- Generator: Adobe Illustrator 23.1.0, SVG Export Plug-In . SVG Version: 6.00 Build 0)  -->
<svg version="1.1" id="Layer_1" xmlns="http://www.w3.org/2000/svg" xmlns:xlink="http://www.w3.org/1999/xlink" x="0px" y="0px"
	 viewBox="0 0 512 512" style="enable-background:new 0 0 512 512;" xml:space="preserve">
<style type="text/css">
	.st0{fill:#CCFF00;}
	.st1{fill:#ACC642;}
	.st2{fill:#666666;}
	.st3{fill:#FFFFFF;}
	.st4{fill:#B6B6B8;}
	.st5{fill:#C2C2C4;}
	.st6{fill:#ECF0F1;}
	.st7{fill:#919191;}
	.st8{fill:#20D0C2;}
	.st9{fill:#FF5B62;}
	.st10{fill:#FAD24D;}
	.st11{fill:#DCE3DB;}
</style>
<title>web-development-svgrepo-com_1</title>
<circle class="st0" cx="256" cy="256" r="256"/>
<ellipse class="st1" cx="253.6" cy="438.5" rx="156.9" ry="15.4"/>
<path class="st2" d="M49.7,58h408c13.4,0,24.3,10.9,24.3,24.4v251.3H25.3V82.4C25.3,69,36.2,58.1,49.7,58L49.7,58z"/>
<path class="st3" d="M41.8,317.2h423.6V82.4c0-4.3-3.5-7.8-7.8-7.8h-408c-4.3,0-7.8,3.5-7.8,7.8L41.8,317.2L41.8,317.2z"/>
<path class="st3" d="M482,333.7v26.6c0,13.4-12.1,24.4-26.9,24.4h-403c-14.8,0-26.9-11-26.9-24.4v-26.6H482z"/>
<circle class="st4" cx="256" cy="346.8" r="7.8"/>
<path class="st5" d="M306.3,423.1l38.8,12.4H162.2l31.3-12.4v-38.3h112.8L306.3,423.1L306.3,423.1z"/>
<path class="st6" d="M193.5,423.1h112.8l38.8,12.4v5.4H162.2v-5.4L193.5,423.1z"/>
<path class="st7" d="M193.5,384.8h112.8v38.3L193.5,384.8z"/>
<rect x="60.3" y="90.6" class="st8" width="43.7" height="7.5"/>
<rect x="109.1" y="90.6" class="st9" width="77.6" height="7.5"/>
<rect x="190.4" y="90.6" class="st10" width="66" height="7.5"/>
<rect x="106.2" y="121.5" class="st10" width="23.2" height="7.5"/>
<rect x="132.1" y="121.5" class="st9" width="41.2" height="7.5"/>
<rect x="175.2" y="121.5" class="st8" width="35" height="7.5"/>
<rect x="60" y="134.8" class="st8" width="40.8" height="7.5"/>
<rect x="105.4" y="134.8" class="st10" width="72.3" height="7.5"/>
<rect x="103.5" y="150.6" class="st9" width="40.8" height="7.5"/>
<rect x="149" y="150.6" class="st8" width="72.3" height="7.5"/>
<rect x="67.3" y="165.7" class="st10" width="40.8" height="7.5"/>
<rect x="113.4" y="165.7" class="st8" width="29.2" height="7.5"/>
<rect x="149.4" y="165.7" class="st9" width="81.9" height="7.5"/>
<rect x="237.4" y="165.7" class="st8" width="29.2" height="7.5"/>
<rect x="58.5" y="181.5" class="st8" width="109.1" height="7.5"/>
<rect x="172.4" y="181.5" class="st10" width="29.2" height="7.5"/>
<rect x="205.7" y="181.5" class="st9" width="40.8" height="7.5"/>
<rect x="120.4" y="111.1" class="st3" width="2.8" height="8.4"/>
<rect x="193.2" y="138.7" class="st3" width="2.8" height="8.4"/>
<rect x="60.3" y="203.8" class="st8" width="43.7" height="7.5"/>
<rect x="109.1" y="203.8" class="st9" width="77.6" height="7.5"/>
<rect x="190.4" y="203.8" class="st10" width="66" height="7.5"/>
<rect x="106.2" y="234.8" class="st10" width="23.2" height="7.5"/>
<rect x="142.8" y="231.9" class="st9" width="38.3" height="7"/>
<rect x="175.2" y="234.8" class="st8" width="35" height="7.5"/>
<rect x="60" y="248" class="st8" width="40.8" height="7.5"/>
<rect x="105.4" y="248" class="st10" width="72.3" height="7.5"/>
<rect x="120.4" y="216.6" class="st3" width="2.8" height="8.4"/>
<rect x="193.2" y="244.2" class="st3" width="2.8" height="8.4"/>
<rect x="290.4" y="90.6" class="st11" width="158.2" height="36.5"/>
<path class="st11" d="M290.4,132.2h75.3v48.2h-75.3V132.2z"/>
<path class="st11" d="M373.2,132.2h75.3v48.2h-75.3V132.2z"/>
<path class="st11" d="M290.6,187.3h157.8v2.3H290.6V187.3z M290.6,209.3h103.6v2.3H290.6V209.3z M290.6,201.9h157.8v2.3H290.6V201.9
	z M290.6,194.6h157.8v2.3H290.6V194.6z"/>
<path class="st11" d="M290.2,217.4h47V264h-47V217.4z M401.8,217.4h47V264h-47V217.4z M346,217.4h47V264h-47L346,217.4z"/>
<path class="st11" d="M290.6,270.5h157.8v2.3H290.6V270.5z M290.6,292.5h103.6v2.3H290.6V292.5z M290.6,285.1h157.8v2.3H290.6V285.1
	z M290.6,277.8h157.8v2.3H290.6V277.8z"/>
</svg>
